<svg width="80" height="80" viewBox="0 0 80 80" fill="none" xmlns="http://www.w3.org/2000/svg">
<path d="M73.3334 55.8333C73.3334 54.4533 72.2134 53.3333 70.8334 53.3333H9.16675C7.78675 53.3333 6.66675 54.4533 6.66675 55.8333C6.66675 57.2133 7.78675 58.3333 9.16675 58.3333H70.8334C72.2134 58.3333 73.3334 57.2133 73.3334 55.8333ZM73.3334 39.1667C73.3334 37.7867 72.2134 36.6667 70.8334 36.6667H9.16675C7.78675 36.6667 6.66675 37.7867 6.66675 39.1667C6.66675 40.5467 7.78675 41.6667 9.16675 41.6667H70.8334C72.2134 41.6667 73.3334 40.5467 73.3334 39.1667ZM73.3334 22.5C73.3334 21.12 72.2134 20 70.8334 20H9.16675C7.78675 20 6.66675 21.12 6.66675 22.5C6.66675 23.88 7.78675 25 9.16675 25H70.8334C72.2134 25 73.3334 23.88 73.3334 22.5Z" fill="white"/>
</svg>
